Coordinates
version=1
nRows=6
nColumns=46
inDegrees=yes

Units are S.I. units (second, meters, Newtons, ...)
Angles are in degrees.

endheader
time	pelvis_tilt	pelvis_list	pelvis_rotation	pelvis_tx	pelvis_ty	pelvis_tz	bb_angle	bb_tx	bb_ty	bb_tz	hip_flexion_r	hip_adduction_r	hip_rotation_r	knee_angle_r	knee_angle_r_beta	ankle_angle_r	subtalar_angle_r	mtp_angle_r	crank_angle_r	hip_flexion_l	hip_adduction_l	hip_rotation_l	knee_angle_l	knee_angle_l_beta	ankle_angle_l	subtalar_angle_l	mtp_angle_l	crank_angle_l	lumbar_extension	lumbar_bending	lumbar_rotation	arm_flex_r	arm_add_r	arm_rot_r	elbow_flex_r	pro_sup_r	wrist_flex_r	wrist_dev_r	arm_flex_l	arm_add_l	arm_rot_l	elbow_flex_l	pro_sup_l	wrist_flex_l	wrist_dev_l
      2.50000000	    -19.53289834	      3.00882910	      5.53392103	      0.05733952	      1.10480083	     -0.26651628	      0.00000000	      0.50000000	      0.00000000	      0.25000000	     69.91789508	     -8.79710779	      5.77833731	     95.90620976	      1.67387913	     -8.07960479	     -9.24250932	      0.00000000	      0.00000000	     64.95568285	     -1.04384093	     -4.03330396	     50.90920609	      0.88853327	      4.90960349	     -1.53284950	      0.00000000	      0.00000000	    -62.69283721	     -2.21870150	     -2.29991989	     89.41327868	    -24.81689835	     20.78467931	     65.05822230	     42.37079691	      0.00000000	      0.00000000	     89.36071035	    -11.97159261	     21.36939182	     71.41490822	     40.11359957	      0.00000000	      0.00000000
      2.50500000	    -19.52567005	      3.09385321	      5.06126965	      0.05826287	      1.10603668	     -0.26684298	      0.00000000	      0.50000000	      0.00000000	      0.25000000	     70.61714366	     -8.57901588	      6.11803436	     96.89194252	      1.69108342	     -7.64044530	     -8.54627926	      0.00000000	      0.00000000	     63.87898988	     -1.27373421	     -4.42938625	     49.31393933	      0.86069061	      3.26920680	     -1.96246672	      0.00000000	      0.00000000	    -62.66838964	     -2.53971540	     -2.25298856	     89.43594811	    -24.83284354	     21.34116540	     64.77648998	     42.14018880	      0.00000000	      0.00000000	     89.37175391	    -11.99286049	     21.58494525	     70.79112188	     39.91087454	      0.00000000	      0.00000000
      2.51000000	    -19.62064278	      2.67068633	      4.62462527	      0.05928128	      1.10686420	     -0.26712082	      0.00000000	      0.50000000	      0.00000000	      0.25000000	     71.34753450	     -8.10010020	      5.90944651	     97.82410492	      1.70735272	     -7.40029112	     -8.48112301	      0.00000000	      0.00000000	     63.08099894	     -1.82373201	     -4.37481259	     47.95701626	      0.83700783	      2.28900447	     -1.54934145	      0.00000000	      0.00000000	    -62.52828199	     -2.45382352	     -1.69157527	     89.45237729	    -24.69571582	     21.49409134	     64.78391834	     42.10682521	      0.00000000	      0.00000000	     89.32148709	    -12.13886768	     21.51739524	     70.73477292	     39.87588773	      0.00000000	      0.00000000
      2.51500000	    -19.66505646	      2.31418000	      4.16967036	      0.06025294	      1.10767551	     -0.26740829	      0.00000000	      0.50000000	      0.00000000	      0.25000000	     72.06493471	     -7.63583960	      5.78758449	     98.77103569	      1.72387978	     -7.15966926	     -8.43522687	      0.00000000	      0.00000000	     62.20749836	     -2.34871888	     -4.39336756	     46.60595630	      0.81342739	      1.28123784	     -1.22405848	      0.00000000	      0.00000000	    -62.42361002	     -2.41850847	     -1.17021874	     89.46264664	    -24.58907069	     21.68075351	     64.79127384	     42.07334427	      0.00000000	      0.00000000	     89.26243002	    -12.27463656	     21.47612570	     70.60605084	     39.83467416	      0.00000000	      0.00000000
      2.52000000	    -19.67497388	      1.99812343	      3.68776319	      0.06124561	      1.10857349	     -0.26772750	      0.00000000	      0.50000000	      0.00000000	      0.25000000	     72.76147271	     -7.19280315	      5.68902359	     99.68730144	      1.73987163	     -6.95099648	     -8.26469464	      0.00000000	      0.00000000	     61.25118531	     -2.87631720	     -4.50171841	     45.21532457	      0.78915629	      0.20138706	     -0.94396408	      0.00000000	      0.00000000	    -62.36085766	     -2.43937113	     -0.72352423	     89.46829971	    -24.54135323	     21.93067211	     64.79382085	     42.02840826	      0.00000000	      0.00000000	     89.21725494	    -12.38366823	     21.45606169	     70.41291588	     39.78411337	      0.00000000	      0.00000000
      2.52500000	    -19.68330828	      1.69213940	      3.24366043	      0.06222908	      1.10927809	     -0.26820677	      0.00000000	      0.50000000	      0.00000000	      0.25000000	     73.50811720	     -6.78634496	      5.60492811	    100.65278670	      1.75672253	     -6.74169180	     -8.10866270	      0.00000000	      0.00000000	     60.31713587	     -3.34619797	     -4.54437191	     43.90137376	      0.76622352	     -0.69673555	     -0.59769173	      0.00000000	      0.00000000	    -62.29284904	     -2.37440669	     -0.15956643	     89.47827079	    -24.45733540	     22.15096469	     64.79687681	     42.00304855	      0.00000000	      0.00000000	     89.13668706	    -12.53016260	     21.41506966	     70.27032547	     39.74883978	      0.00000000	      0.00000000
